# xmcd
# 
# Track frame offsets:
#     150
#     28285
#     54513
#     81355
#     107434
#     139281
#     169307
#     204161
#     235710
# 
# Disc length: 3554
# 
# Revision: 1
# Processed by: cddbd v1.5.2PL0 Copyright (c) Steve Scherf et al.
# Submitted via: fre:ac v1.1beta1pre4
# 
DISCID=750de009
DTITLE=Ernie Watts Quartet - Wheel Of Time
DYEAR=2016
DGENRE=Jazz
TTITLE0=Letter From Home
TTITLE1=A Distant Light
TTITLE2=Inner Urge
TTITLE3=Andi's Blues
TTITLE4=L'Agua Azul
TTITLE5=You And You
TTITLE6=Velocity
TTITLE7=Goose Dance
TTITLE8=Wheel Of Time
EXTD=
EXTT0=
EXTT1=
EXTT2=
EXTT3=
EXTT4=
EXTT5=
EXTT6=
EXTT7=
EXTT8=
PLAYORDER=
